<svg width="645" height="583" viewBox="0 0 645 583" fill="none" xmlns="http://www.w3.org/2000/svg">
<mask id="mask0" mask-type="alpha" maskUnits="userSpaceOnUse" x="0" y="0" width="645" height="583">
<rect width="645" height="583" fill="#E6FFFF"/>
</mask>
<g mask="url(#mask0)">
</g>
<g clip-path="url(#clip0)">
<path d="M469.474 47.1587L477.749 38.902C483.795 32.8682 484.75 23.9763 478.703 17.9425C475.203 14.4493 470.906 13.4966 466.769 14.4493C467.087 10.956 465.814 7.62159 463.109 4.76348C457.221 -1.11152 448.628 -0.158818 442.581 5.71618L434.943 13.3378L426.668 5.08105C420.78 -0.952736 411.869 -1.90544 405.822 4.12834C402.481 7.4628 401.526 11.75 402.321 15.8783C398.98 15.7196 395.638 16.831 392.774 19.5304C386.886 25.4054 387.841 33.9797 393.728 40.0135L400.73 47L393.092 54.6216C387.045 60.6554 386.09 69.5473 392.137 75.581C395.638 79.0743 399.935 80.027 404.072 79.0743C403.754 82.5675 404.868 85.902 407.732 88.7601C413.62 94.6351 422.213 93.6824 428.259 87.8074L435.261 80.8209L443.536 89.0777C449.583 95.1114 458.494 96.0641 464.541 90.0304C468.042 86.5371 468.996 82.25 468.042 78.1216C471.543 78.4391 474.884 77.3277 477.749 74.4696C483.636 68.5946 482.682 60.0202 476.794 53.9864L469.474 47.1587ZM464.063 24.929C465.973 23.0236 468.678 23.0236 470.588 24.929C472.497 26.8344 472.656 29.375 470.588 31.4392L464.063 37.9493L457.539 31.4392L464.063 24.929ZM450.219 13.0202C451.97 11.2736 454.516 11.2736 456.266 13.0202C458.017 14.7669 458.017 17.3074 456.266 19.054L450.697 24.6115L444.65 18.5777L450.219 13.0202ZM413.142 12.3851C415.052 10.4797 417.598 10.3209 419.667 12.3851L426.191 18.8952L419.507 25.4054L412.983 18.8952C411.074 16.9898 411.233 14.2905 413.142 12.3851ZM401.048 26.8344C402.799 25.0878 405.345 25.0878 407.095 26.8344L412.665 32.3919L406.618 38.4256L401.048 32.8682C399.298 30.9628 399.298 28.581 401.048 26.8344ZM406.936 68.4358C405.027 70.3412 402.321 70.3412 400.412 68.4358C398.502 66.5304 398.343 63.9898 400.412 61.9256L406.936 55.4155L413.46 61.9256L406.936 68.4358ZM420.78 80.3446C419.03 82.0912 416.484 82.0912 414.734 80.3446C412.983 78.5979 412.983 76.0574 414.734 74.3108L420.303 68.7533L426.35 74.7871L420.78 80.3446ZM435.42 68.4358L413.779 46.6824L435.579 24.929L457.38 46.6824L435.42 68.4358ZM457.221 81.6148C455.311 83.5202 452.765 83.679 450.697 81.6148L444.172 75.1047L450.697 68.5946L457.221 75.1047C459.131 77.1689 459.131 79.7094 457.221 81.6148ZM469.156 67.3243C467.405 69.0709 464.859 69.0709 463.109 67.3243L457.539 61.7669L463.586 55.7331L469.156 61.2905C471.065 63.0371 470.906 65.5777 469.156 67.3243Z" fill="#E7FFF0"/>
</g>
<path d="M154.5 444C171.345 444 185 430.345 185 413.5C185 396.655 171.345 383 154.5 383C137.655 383 124 396.655 124 413.5C124 430.345 137.655 444 154.5 444Z" fill="#413EF3"/>
<path d="M119 486C139.435 486 156 469.435 156 449C156 428.565 139.435 412 119 412C98.5655 412 82 428.565 82 449C82 469.435 98.5655 486 119 486Z" fill="#00E995"/>
<path d="M449.5 210C441 210 434 203 434 194.5C434 186 441 179 449.5 179C458 179 465 186 465 194.5C465 203 458 210 449.5 210ZM449.5 186C444.8 186 441 189.8 441 194.5C441 199.2 444.8 203 449.5 203C454.2 203 458 199.2 458 194.5C458 189.8 454.2 186 449.5 186Z" fill="#00D1FF"/>
<circle cx="477.5" cy="417.5" r="161" stroke="#413EF3" stroke-width="3"/>
<path d="M362.257 321.911L417.998 282.033L409.389 269.747L356.015 307.684L387.007 254.227L373.878 246.682L343.533 299.278V240H328.467V294.32L300.92 246.682L287.791 254.227L320.289 310.271L268.422 269.531L259.167 281.387L310.604 321.911H237V337H435V321.911H362.257Z" fill="#00E995"/>
<path d="M315.5 500C296.581 500 281 484.419 281 465.5C281 446.581 296.581 431 315.5 431C334.419 431 350 446.581 350 465.5C350 484.419 334.419 500 315.5 500ZM315.5 446.581C305.039 446.581 296.581 455.039 296.581 465.5C296.581 475.961 305.039 484.419 315.5 484.419C325.961 484.419 334.419 475.961 334.419 465.5C334.419 455.039 325.961 446.581 315.5 446.581Z" fill="#E7FFFF"/>
<path d="M226 132C213.935 132 204 122.065 204 110C204 97.9355 213.935 88 226 88C238.065 88 248 97.9355 248 110C248 122.065 238.065 132 226 132ZM226 97.9355C219.329 97.9355 213.935 103.329 213.935 110C213.935 116.671 219.329 122.065 226 122.065C232.671 122.065 238.065 116.671 238.065 110C238.065 103.329 232.671 97.9355 226 97.9355Z" fill="#413EF3"/>
<g clip-path="url(#clip1)">
<path d="M86.0898 94.1167L97.9319 79.1736L11.8452 12.0531L0.00306031 26.9961L86.0898 94.1167Z" fill="#00E995"/>
</g>
<defs>
<clipPath id="clip0">
<rect width="95" height="94" fill="white" transform="translate(388)"/>
</clipPath>
<clipPath id="clip1">
<rect width="98" height="82" fill="white" transform="translate(0 12)"/>
</clipPath>
</defs>
</svg>
